<svg viewBox="0 0 356 78" height="78" width="356"
     style="width: 356px; height: 78px; position: absolute; top: 50%; left: 50%; transform: translate(-50%, -50%) scale(0.448315); z-index: 0; cursor: pointer;">
    <defs id="SvgjsDefs2055"></defs>
    <g id="SvgjsG2056" featurekey="symbolFeature-0"
       transform="matrix(1.1107780607434719,0,0,1.1107780607434719,-5.53858894864304,-15.95599862271385)"
       fill="#eb89b5">
        <path xmlns="http://www.w3.org/2000/svg" fill-rule="evenodd" clip-rule="evenodd"
              d="M80.904,25.184c3.666-0.667,6.199-0.25,7.6,1.25c0.199,0.167,0.35,0.367,0.449,0.6  c1.102,2.466-0.699,4.833-5.398,7.1c-8.434,3.467-17.301,6.267-26.602,8.4c-1.633,0.333-2.949,0.5-3.949,0.5  c-0.867,0-1.533-0.117-2-0.35c-0.633-0.333-1-0.783-1.1-1.35c-0.1-0.7,0.232-1.533,1-2.5l-2.6-4.75  c-0.102-0.133-0.117-0.267-0.051-0.4c0.033-0.1,0.117-0.2,0.25-0.3l2.551-1.2c0.133-0.033,0.266-0.017,0.398,0.05l5.65,2.85l4.9-2  l-9.6-6.75c-0.168-0.1-0.25-0.233-0.25-0.4c0.033-0.2,0.133-0.35,0.299-0.45l3.801-2.05c0.1-0.067,0.217-0.083,0.35-0.05  l16.051,4.55c3.066-1.367,5.666-2.267,7.799-2.7L80.904,25.184z M63.154,33.633l-5.9,2.4c-0.166,0.066-0.301,0.066-0.4,0l-5.6-2.8  l-1.801,0.85l2.5,4.55c0.135,0.233,0.117,0.434-0.049,0.6c-0.801,0.867-1.15,1.5-1.051,1.9c0,0.233,0.201,0.45,0.6,0.65  c0.867,0.433,2.635,0.35,5.301-0.25c9.301-2.1,18.1-4.867,26.4-8.3c4.1-1.967,5.732-3.9,4.9-5.8l-0.201-0.25l-0.049-0.05  c-0.035,0-0.051-0.017-0.051-0.05c-2.434,0.133-4.617,0.75-6.551,1.85l-0.148,0.05l-0.051-0.05c-0.066,0-0.117-0.05-0.15-0.15  c-0.299-0.867-0.383-1.733-0.25-2.6c-2.1,0.4-4.65,1.316-7.65,2.75c-0.133,0.066-0.25,0.083-0.35,0.05l-16.049-4.55l-2.951,1.6  l9.65,6.75c0.166,0.1,0.232,0.25,0.199,0.45C63.419,33.434,63.32,33.567,63.154,33.633z M51.753,27.833  c0.1,0.133,0.066,0.25-0.1,0.35l-7.1,3.45l-0.15,0.05c-0.066,0-0.135-0.067-0.201-0.2s-0.033-0.233,0.102-0.3l7.148-3.45  C51.587,27.633,51.687,27.667,51.753,27.833z M52.103,30.583c-0.066-0.133-0.016-0.233,0.15-0.3l1.949-0.95  c0.135-0.1,0.234-0.067,0.301,0.1c0.1,0.133,0.066,0.25-0.1,0.35l-1.9,0.95h-0.15C52.253,30.733,52.169,30.684,52.103,30.583z   M56.003,36.184c0.1,0.133,0.066,0.25-0.1,0.35l-3.15,1.75c-0.1,0-0.184-0.034-0.25-0.1c-0.066-0.133-0.033-0.233,0.1-0.3l3.051-1.8  C55.787,36.017,55.904,36.05,56.003,36.184z M50.304,45.383c-0.135,0-0.217-0.05-0.25-0.15c-0.035-0.167,0.016-0.283,0.148-0.35  l3.201-0.95c0.133-0.033,0.217,0.017,0.25,0.15s0,0.233-0.1,0.3L50.304,45.383z M62.853,43.883l8.35-2.65  c0.168-0.066,0.283-0.017,0.352,0.15c0.033,0.167-0.035,0.267-0.201,0.3l-8.4,2.65c-0.133,0-0.217-0.067-0.25-0.2  S62.72,43.917,62.853,43.883z M81.203,28.333c1.801-0.967,3.783-1.533,5.951-1.7c-1.234-0.8-3.25-0.95-6.051-0.45  C80.97,26.817,81.003,27.534,81.203,28.333z M80.253,35.983c0.133,0.1,0.217,0.217,0.25,0.35l1.199,8.6  c0.033,0.267-0.082,0.45-0.35,0.55l-3.949,1.4c-0.168,0-0.301-0.05-0.4-0.15l-5.449-7.2c-0.102-0.133-0.135-0.284-0.102-0.45  c0.066-0.167,0.168-0.283,0.301-0.35l8.1-2.8C79.986,35.9,80.121,35.917,80.253,35.983z M73.554,44.333  c0.133-0.033,0.232,0.033,0.299,0.2c0.033,0.167-0.033,0.267-0.199,0.3l-2.701,0.75c-0.1,0-0.166-0.067-0.199-0.2  c-0.066-0.167-0.018-0.267,0.15-0.3L73.554,44.333z M77.554,45.784l3.1-1.1l-1.051-7.6l-6.9,2.35L77.554,45.784z M94.953,53.383  c0.467,6.9-1.783,11.767-6.75,14.6v3.35l3.451,2.1c0.199,0.133,0.266,0.316,0.199,0.55s-0.232,0.35-0.5,0.35h-7.449  c-0.234,0-0.385-0.117-0.451-0.35c-0.033-0.267,0.033-0.45,0.201-0.55l3.549-2.1v-3.35c-4.967-2.8-7.199-7.667-6.699-14.6  c0-0.133,0.033-0.25,0.1-0.35c0.1-0.067,0.217-0.1,0.35-0.1h13.5C94.753,52.934,94.919,53.083,94.953,53.383z M93.154,55.434  c0.332,0,0.5,0.15,0.5,0.45v0.35c0,0.133-0.051,0.25-0.15,0.35s-0.217,0.15-0.35,0.15c-0.135,0-0.25-0.05-0.35-0.15  c-0.102-0.1-0.15-0.217-0.15-0.35v-0.35C92.654,55.583,92.82,55.434,93.154,55.434z M93.554,57.833  c-0.135,0.933-0.4,2.033-0.801,3.3c-0.1,0.233-0.25,0.35-0.449,0.35l-0.15-0.05c-0.301-0.1-0.4-0.317-0.301-0.65  c0.367-1.133,0.617-2.167,0.75-3.1c0-0.133,0.051-0.233,0.15-0.3c0.1-0.1,0.217-0.133,0.35-0.1c0.133,0,0.25,0.05,0.35,0.15  C93.554,57.567,93.587,57.7,93.554,57.833z M73.703,60.133c-3.398-2.8-7.35-4.25-11.85-4.35h-0.9l-0.049,0.05  c-2.9,0.033-5.6,0.683-8.1,1.95c-0.5,0.233-1.018,0.517-1.551,0.85c-0.967,0.6-1.967,1.35-3,2.25l-0.85,0.85l-0.1,0.15l-0.701,0.7  c-1.066,1.267-1.916,2.55-2.549,3.85c-0.201,0.333-0.4,0.733-0.602,1.2l-0.5,1.3v0.05l-0.25,0.65v0.1l-0.148,0.55h37.75l-0.4-1.25  v-0.05c-0.066-0.233-0.135-0.417-0.201-0.55l-0.049-0.05c-0.234-0.667-0.533-1.35-0.9-2.05c-0.334-0.6-0.783-1.35-1.35-2.25  c-0.467-0.6-0.967-1.2-1.5-1.8l-0.801-0.75C74.57,60.934,74.103,60.467,73.703,60.133z M75.804,60.733l0.85,0.95  c0.533,0.5,1.033,1.1,1.5,1.8c0.566,0.767,1.066,1.567,1.5,2.4c0.4,0.833,0.717,1.55,0.949,2.15c0.066,0.2,0.133,0.433,0.201,0.7  c0.166,0.533,0.299,0.967,0.398,1.3l0.15,0.6c0.033,0.167-0.016,0.3-0.15,0.4c-0.066,0.133-0.184,0.2-0.35,0.2H41.904  c-0.168,0-0.268-0.066-0.301-0.2c-0.133-0.1-0.166-0.233-0.1-0.4c0.033-0.167,0.1-0.5,0.199-1v-0.1l-21.25,6.85  c-0.6,0.167-1.115,0.25-1.549,0.25c-0.367,0-0.701-0.05-1-0.15c-0.467-0.267-0.801-0.717-1-1.35l-11.9-35.8  c-0.033-0.1-0.018-0.233,0.051-0.4c0.1-0.1,0.199-0.184,0.299-0.25l11.9-3.55l-0.699-2.15c-0.035-0.133-0.018-0.267,0.049-0.4  c0.066-0.1,0.166-0.183,0.301-0.25l2.15-0.65c-0.234-0.9-0.135-1.75,0.299-2.55c0.4-0.867,1.084-1.466,2.051-1.8  c0.9-0.3,1.799-0.2,2.699,0.3c0.801,0.4,1.367,1.017,1.701,1.85l2.25-0.6c0.133-0.033,0.25-0.017,0.35,0.05  c0.133,0.066,0.217,0.133,0.25,0.2l0.799,2.4l10.602-3.3c0.299-0.066,0.516,0.033,0.648,0.3l12.102,28.1  c2.266-1.033,4.666-1.617,7.199-1.75l-1.699-2.5c-0.135-0.167-0.15-0.35-0.051-0.55c0.1-0.167,0.25-0.25,0.449-0.25h5.4  c0.201,0,0.35,0.083,0.451,0.25c0.1,0.2,0.1,0.383,0,0.55l-1.801,2.45c4.334,0.267,8.199,1.783,11.6,4.55  C74.853,59.85,75.337,60.3,75.804,60.733z M73.353,61.184l1.85,2c0.066,0.1,0.102,0.217,0.102,0.35  c-0.035,0.167-0.102,0.3-0.201,0.4c-0.1,0.066-0.199,0.1-0.299,0.1c-0.135,0-0.25-0.067-0.352-0.2l-1.799-1.95  c-0.334-0.3-0.717-0.65-1.15-1.05c-0.834-0.7-1.684-1.283-2.551-1.75c-0.1-0.067-0.184-0.167-0.25-0.3  c-0.033-0.067-0.016-0.167,0.051-0.3c0.166-0.3,0.4-0.367,0.699-0.2c0.867,0.433,1.75,1.033,2.65,1.8  C72.804,60.65,73.22,61.017,73.353,61.184z M82.703,72.333v1.5c0,0.133-0.049,0.25-0.148,0.35c-0.102,0.1-0.217,0.15-0.352,0.15  h-41.5c-0.133,0-0.25-0.05-0.35-0.15s-0.15-0.217-0.15-0.35v-1.5c0-0.333,0.168-0.5,0.5-0.5h41.5  C82.537,71.833,82.703,72,82.703,72.333z M87.703,67.184c4.533-2.6,6.635-7.017,6.301-13.25h-12.6  C81.07,60.167,83.169,64.583,87.703,67.184z M63.154,52.583h-3.551l1.6,2.25h0.4L63.154,52.583z M68.453,57.883  c0.033,0.167,0.033,0.3,0,0.4c-0.1,0.233-0.266,0.35-0.5,0.35l-1.049-0.4c-0.135-0.066-0.217-0.167-0.25-0.3  c-0.066-0.133-0.066-0.267,0-0.4c0.033-0.1,0.115-0.184,0.25-0.25c0.166-0.067,0.299-0.067,0.4,0l0.85,0.35  C68.287,57.667,68.386,57.75,68.453,57.883z M51.904,57.083l-12-27.75l-10.35,3.2l0.25,0.95c0,0.067-0.018,0.133-0.051,0.2  c-0.033,0.066-0.084,0.1-0.15,0.1l-11.25,3.6l-0.1-0.05c-0.1-0.033-0.15-0.083-0.15-0.15l-0.35-1.15l-11.65,3.5l11.701,35.3  c0.133,0.367,0.316,0.6,0.549,0.7c0.367,0.233,0.966,0.2,1.8-0.1l21.949-7.05l0.701-1.65l-0.75,0.25  c-0.301,0.133-0.535,0.217-0.701,0.25l-7.75,2.3l-0.35,0.15l-14.1,4.35c-0.135,0-0.217-0.067-0.25-0.2l-1.3-3.85  c0-0.167-0.033-0.3-0.1-0.4l-8.65-25.65c-0.033-0.033-0.033-0.083,0-0.15l0.15-0.1l31.849-9.65c0.133-0.067,0.234-0.017,0.301,0.15  l1.25,3.1l0.049,0.05l8.551,20.25L51.904,57.083z M25.054,30.383c-0.068-0.133-0.117-0.283-0.15-0.45  c-0.234-0.6-0.668-1.067-1.301-1.4c-0.6-0.367-1.217-0.45-1.85-0.25c-0.734,0.233-1.234,0.65-1.5,1.25  c-0.367,0.667-0.416,1.35-0.15,2.05l0.051,0.1l0.049,0.25c0.066,0.267-0.066,0.45-0.398,0.55l-2.15,0.7l0.65,2.15  c0.066,0.1,0.066,0.217,0,0.35c-0.035,0.033-0.068,0.083-0.102,0.15l0.301,1l10.8-3.45l-0.25-0.8c-0.068,0-0.117-0.017-0.15-0.05  c-0.135-0.034-0.234-0.117-0.301-0.25l-0.75-2.35l-2.25,0.65C25.371,30.65,25.187,30.583,25.054,30.383z M22.003,29.184  c0.367-0.1,0.75-0.067,1.15,0.1c0.434,0.2,0.699,0.5,0.799,0.9c0.033,0.333,0.033,0.633,0,0.9c-0.033,0.167-0.082,0.283-0.148,0.35  c-0.168,0.4-0.484,0.633-0.951,0.7c-0.133,0.067-0.299,0.1-0.5,0.1c-0.232,0-0.449-0.033-0.65-0.1h-0.049l-0.201-0.1l-0.049-0.1  l-0.301-0.4c-0.1-0.133-0.166-0.25-0.199-0.35c-0.1-0.434-0.051-0.85,0.15-1.25C21.253,29.567,21.57,29.317,22.003,29.184z   M21.503,30.184c-0.133,0.3-0.166,0.6-0.1,0.9c0,0.067,0.033,0.117,0.1,0.15l0.199,0.3l0.25,0.2c0.268,0.1,0.518,0.1,0.75,0  c0.334-0.1,0.566-0.283,0.701-0.55c0.066-0.067,0.1-0.133,0.1-0.2c0.033-0.2,0.033-0.433,0-0.7c-0.066-0.233-0.268-0.417-0.6-0.55  c-0.234-0.133-0.484-0.167-0.75-0.1C21.853,29.733,21.636,29.917,21.503,30.184z M40.804,34.583l-31.4,9.45l2.4,7.1l31.898-9.7  L40.804,34.583z M46.603,61.133l1-1c0.934-0.867,1.934-1.633,3-2.3l-6.75-15.95l-31.9,9.7l5.951,17.75  c0.133,0.167,0.199,0.367,0.199,0.6l1.201,3.55l13.799-4.3l0.35-0.15l7.75-2.3c0.268-0.066,0.467-0.15,0.602-0.25h0.049l1.201-0.35  l0.049-0.15c0.768-1.433,1.684-2.783,2.75-4.05c0.201-0.233,0.434-0.45,0.701-0.65L46.603,61.133z"></path>
    </g>
    <g id="SvgjsG2057" featurekey="textGroupContainer" transform="matrix(1,0,0,1,355,0)" fill="#ffffff">
        <rect xmlns="http://www.w3.org/2000/svg" y="0" height="1" width="1" opacity="0"></rect>
        <rect xmlns="http://www.w3.org/2000/svg" y="0" x="-235" width="3" height="78"></rect>
    </g>
    <g id="SvgjsG2058" featurekey="vMvB0T-0"
       transform="matrix(2.564827837555555,0,0,2.564827837555555,135.46042202241034,7.438876645247769)" fill="#ffffff">
        <path d="M9.42 16.32 c0.12 -0.26 0.22 -0.52 0.32 -0.78 c0.22 -0.64 0.26 -1.3 0.32 -1.96 c0.12 -1.4 0.08 -2.82 -0.28 -4.18 c-0.44 -1.74 -1.56 -3.34 -3.24 -4.08 c-0.76 -0.34 -1.62 -0.38 -2.44 -0.36 c-0.86 0 -1.74 -0.04 -2.6 0.04 c-0.24 0.02 -0.36 0.14 -0.4 0.36 c-0.04 0.24 -0.08 0.48 -0.08 0.7 c0.04 1.22 0 4.84 0.04 5.44 c0.02 0.54 -0.04 1.2 -0.04 1.74 c0.02 1.34 0 2.7 0 4.04 c0 0.56 -0.02 1.1 -0.02 1.66 c0 0.6 -0.22 0.86 1.42 0.86 c1.46 0 2.98 -0.12 4.36 -0.64 c1.28 -0.46 2.08 -1.64 2.64 -2.84 z M3.6 14.24 l0 -2.4 c0 -1.52 0.04 -2.5 -0.02 -3.78 l0 -0.24 c0.02 -0.42 0.08 -0.44 0.52 -0.44 c0.58 -0.02 1 0.12 1.5 0.32 s0.78 0.64 1.04 1.06 c0.5 0.82 0.7 1.72 0.74 2.66 c0.02 0.54 0.04 1.08 0.04 1.62 c0 2.56 -1.5 4.34 -2.82 4.34 c-0.88 0 -1.02 0.06 -1.02 -0.52 c0 -0.6 0.04 -1.2 0.04 -1.8 c-0.02 -0.26 -0.02 -0.54 -0.02 -0.82 z M22.66 8.68 c0.42 1.24 0.52 2.58 0.52 3.9 c0 1.1 -0.2 2.16 -0.48 3.22 c-0.36 1.26 -0.96 2.4 -2.04 3.14 c-0.8 0.58 -1.64 0.96 -2.62 1.06 c-0.14 0 -0.26 0.02 -0.4 0.02 c-0.12 0 -0.24 -0.02 -0.38 -0.02 c-0.98 -0.1 -1.82 -0.48 -2.64 -1.06 c-1.06 -0.74 -1.68 -1.88 -2.02 -3.14 c-0.3 -1.06 -0.48 -2.12 -0.48 -3.22 c0 -1.32 0.1 -2.66 0.52 -3.9 c0.74 -2.14 2.78 -3.66 5 -3.7 c2.22 0.04 4.26 1.56 5.02 3.7 z M20.72 14.04 c0.2 -1.22 0.12 -2.46 -0.12 -3.68 c-0.24 -1.1 -0.72 -2.18 -1.64 -2.84 c-0.16 -0.12 -0.34 -0.22 -0.52 -0.28 c-0.26 -0.12 -0.54 -0.16 -0.8 -0.16 s-0.52 0.04 -0.78 0.16 c-0.2 0.06 -0.36 0.16 -0.52 0.28 c-0.94 0.66 -1.42 1.74 -1.64 2.84 c-0.24 1.22 -0.32 2.46 -0.12 3.68 c0.2 1.1 0.6 2.58 1.64 3.14 c0.44 0.24 0.92 0.4 1.42 0.42 c0.5 -0.02 1 -0.18 1.44 -0.42 c1.04 -0.56 1.44 -2.04 1.64 -3.14 z M32.72 17.82 c0.02 0.62 0.02 1.24 0.04 1.86 c0 0.28 0.02 0.32 0.3 0.32 l1.8 0 c0.38 0 0.3 -0.64 0.28 -0.98 l0.06 -11.2 c0 -0.3 0.1 -0.4 0.5 -0.4 l1.76 0 c0.42 0 0.32 -0.72 0.32 -1.22 c0 -0.44 0.16 -1.2 -0.32 -1.2 c-0.34 0 -3.6 0 -4.94 0.02 c-0.66 0 -1.2 -0.02 -1.86 -0.02 c-0.5 0 -0.48 0.4 -0.48 1.28 c0 0.56 -0.02 1.12 0.46 1.12 c0.28 0 1.42 0 1.74 0.02 c0.2 0 0.34 0.06 0.38 0.28 c0 0.06 0.02 0.12 0.02 0.18 c0 1.44 -0.1 8.14 -0.06 9.94 z M41.64 19.84 c0.06 0.02 0.24 0.02 0.42 0.02 c0.4 0 0.52 -1.44 0.56 -1.74 c0.02 -0.24 0.08 -0.26 0.28 -0.3 c1 -0.12 1.5 -0.04 2.5 -0.02 c0.22 0 0.34 0.1 0.4 0.28 l0.14 0.46 c0.12 0.34 0.22 0.76 0.34 1.1 c0.08 0.24 0.1 0.22 0.34 0.22 c0.32 0 1.48 0 1.82 -0.02 c0.46 0 0.14 -0.94 0.08 -1.1 c-0.18 -0.56 -0.22 -1.14 -0.4 -1.7 c-0.08 -0.24 -2.36 -11.06 -2.46 -11.66 c-0.14 -0.36 -0.02 -0.38 -0.34 -0.38 c-0.68 0 -1.4 0.04 -2.1 0 c-0.28 0 -0.26 0.08 -0.3 0.38 c-0.04 0.28 -0.76 3.46 -1.04 4.78 c-0.36 1.66 -0.68 3.26 -1.08 4.9 c-0.14 0.58 -1.1 4.76 -0.98 4.78 c0.06 0.04 0.16 0.02 0.24 0.02 c0.5 0 0.96 0 1.58 -0.02 z M44.26 15.3 l-0.42 0 c-0.56 0 -0.58 0 -0.44 -0.58 c0.1 -0.44 0.64 -2.82 0.76 -3.4 c0.02 -0.04 0.06 -0.08 0.08 -0.08 c0.04 0 0.08 0.04 0.1 0.06 c0.08 0.24 0.16 0.84 0.24 1.08 c0.18 0.76 0.3 1.4 0.48 2.22 c0.18 0.72 0.1 0.72 -0.26 0.72 c-0.18 0 -0.36 -0.02 -0.54 -0.02 z M54.76 4.9 c-0.38 0.02 -0.76 0.08 -1.14 0.2 c-0.82 0.28 -1.56 0.84 -2.06 1.56 c-0.44 0.66 -0.62 1.44 -0.68 2.22 c-0.04 0.6 0.02 1.22 0.3 1.76 c0.3 0.58 0.82 1.08 1.26 1.56 c0.4 0.42 0.8 0.84 1.24 1.22 c0.4 0.38 0.86 0.68 1.26 1.08 c0.58 0.58 0.8 1.9 0.38 2.62 c-0.5 0.8 -1.68 0.92 -2.46 0.66 c-0.4 -0.14 -0.76 -0.44 -1.1 -0.68 c-0.2 -0.14 -0.44 -0.2 -0.58 0.04 c-0.08 0.12 -0.12 0.26 -0.16 0.38 c-0.14 0.5 -0.32 0.96 -0.34 1.5 c-0.02 0.62 1.16 0.8 1.6 0.9 c1.96 0.46 4.32 0.1 5.34 -1.84 c0.2 -0.4 0.34 -0.82 0.42 -1.26 c0.02 -0.16 0.04 -0.3 0.04 -0.46 c0.08 -1.28 -0.44 -2.36 -1.22 -3.32 c-0.84 -1.04 -1.9 -1.76 -2.88 -2.66 c-0.6 -0.56 -0.82 -1.44 -0.64 -2.24 c0.18 -0.86 1.16 -1.08 1.9 -0.86 c0.22 0.06 0.4 0.16 0.6 0.28 c0.12 0.06 0.24 0.14 0.4 0.14 c0.28 0.02 0.32 -0.2 0.38 -0.42 c0.14 -0.5 0.38 -0.9 0.48 -1.38 c0.1 -0.54 -0.34 -0.64 -0.78 -0.78 c-0.52 -0.14 -1.02 -0.24 -1.56 -0.22 z M62.8 16.38 c0 -0.7 -0.1 -2.6 -0.08 -3 c0 -0.06 0.04 -0.14 0.06 -0.14 c0.04 0 0.12 0.04 0.14 0.06 c0.64 0.84 3.64 6.66 4 6.68 c0.1 0.02 0.2 0.02 0.3 0.02 c0.68 -0.04 1.28 0 1.96 0 c0.7 0 0.24 -0.68 0.12 -0.86 c-0.18 -0.26 -2.56 -4.52 -2.7 -4.78 c-0.4 -0.68 -0.74 -1.42 -1.14 -2.08 c-0.04 -0.08 -0.08 -0.2 -0.06 -0.28 c0.04 -0.24 0.1 -0.46 0.2 -0.68 c0.48 -0.94 0.98 -1.9 1.56 -2.8 c0.64 -1.02 1 -1.66 1.52 -2.58 c0.12 -0.22 0.2 -0.46 0.28 -0.72 c0.02 -0.1 -0.06 -0.2 -0.18 -0.2 c-0.38 -0.02 -1.76 0 -2.2 0 c-0.2 0 -0.4 0.04 -0.5 0.22 c-0.26 0.5 -2.94 5.4 -3.2 5.84 c-0.02 0.04 -0.08 0.06 -0.14 0.06 c0 0 -0.04 -0.06 -0.04 -0.1 c-0.02 -1.12 0.18 -4.78 0.14 -5.52 c-0.02 -0.44 -0.1 -0.48 -0.54 -0.5 c-0.48 -0.02 -1.14 -0.02 -1.62 -0.02 c-0.44 0 -0.48 0.24 -0.54 0.56 c-0.02 0.06 -0.02 1.94 -0.02 2.78 c0 1.22 -0.1 8.86 0.04 11.28 c0 0.24 0.06 0.38 0.26 0.38 c0.54 -0.04 1.34 0 1.88 0 c0.38 0 0.44 -0.04 0.44 -0.68 c0 -0.86 0.08 -1.64 0.08 -2.7 c0 -0.08 -0.02 -0.16 -0.02 -0.24 z M75.64 4.9 c-0.38 0.02 -0.76 0.08 -1.14 0.2 c-0.82 0.28 -1.56 0.84 -2.06 1.56 c-0.44 0.66 -0.62 1.44 -0.68 2.22 c-0.04 0.6 0.02 1.22 0.3 1.76 c0.3 0.58 0.82 1.08 1.26 1.56 c0.4 0.42 0.8 0.84 1.24 1.22 c0.4 0.38 0.86 0.68 1.26 1.08 c0.58 0.58 0.8 1.9 0.38 2.62 c-0.5 0.8 -1.68 0.92 -2.46 0.66 c-0.4 -0.14 -0.76 -0.44 -1.1 -0.68 c-0.2 -0.14 -0.44 -0.2 -0.58 0.04 c-0.08 0.12 -0.12 0.26 -0.16 0.38 c-0.14 0.5 -0.32 0.96 -0.34 1.5 c-0.02 0.62 1.16 0.8 1.6 0.9 c1.96 0.46 4.32 0.1 5.34 -1.84 c0.2 -0.4 0.34 -0.82 0.42 -1.26 c0.02 -0.16 0.04 -0.3 0.04 -0.46 c0.08 -1.28 -0.44 -2.36 -1.22 -3.32 c-0.84 -1.04 -1.9 -1.76 -2.88 -2.66 c-0.6 -0.56 -0.82 -1.44 -0.64 -2.24 c0.18 -0.86 1.16 -1.08 1.9 -0.86 c0.22 0.06 0.4 0.16 0.6 0.28 c0.12 0.06 0.24 0.14 0.4 0.14 c0.28 0.02 0.32 -0.2 0.38 -0.42 c0.14 -0.5 0.38 -0.9 0.48 -1.38 c0.1 -0.54 -0.34 -0.64 -0.78 -0.78 c-0.52 -0.14 -1.02 -0.24 -1.56 -0.22 z"></path>
    </g>
</svg>